<svg width="333" height="402" viewBox="0 0 333 402" fill="none" xmlns="http://www.w3.org/2000/svg">
<path d="M231.26 0.305696C231.148 0.293695 231.039 0.293755 230.934 0.309264C230.809 0.326896 230.687 0.367597 230.566 0.418245C230.238 0.481857 229.938 0.62948 229.668 0.873818C228.643 1.80151 228.093 3.46786 227.574 7.79853C227.569 7.83967 227.565 7.87519 227.56 7.91823C227.411 9.17188 227.265 10.6096 227.11 12.3552C226.971 13.9299 226.904 19.4572 226.893 26.2689C226.857 30.1683 226.872 34.3695 226.935 38.7686C226.998 47.4708 227.126 55.9631 227.314 60.1492C227.47 63.6275 227.652 67.0801 227.85 70.4765C227.911 71.7125 227.976 72.854 228.044 73.87C228.076 74.3506 228.116 74.8553 228.15 75.3422C229.37 94.1343 231.128 110.177 232.621 115.101C232.628 115.126 232.631 115.145 232.636 115.168C232.652 115.28 232.67 115.398 232.679 115.476C232.639 115.756 232.247 115.724 231.118 115.475C223.052 113.694 205.045 113.714 189.367 115.52C177.887 116.842 160.737 121.079 154.905 124.032L154.387 124.295C153.862 124.498 153.407 124.66 153.076 124.749C152.671 124.829 152.37 124.835 152.121 124.781L150.958 124.012C148.136 122.144 142.516 119.09 136.582 116.103C135.917 115.758 135.263 115.42 134.68 115.128C132.644 114.107 130.522 113.099 128.334 112.105C126.352 111.184 124.438 110.318 122.76 109.609C97.3041 98.8568 66.3172 91.062 40.5612 88.9316C37.6687 88.6924 34.1141 88.5774 30.619 88.5564C29.7141 88.5294 28.8727 88.5137 28.1482 88.5144C26.8312 88.5158 25.586 88.557 24.3902 88.6172C23.5871 88.6407 22.8253 88.6721 22.1195 88.7163C19.1651 88.8667 16.9443 89.1114 16.2997 89.4363C15.8639 89.6559 15.5076 89.8689 15.2189 90.0857C14.5375 90.4838 14.1987 90.9609 14.1987 91.5203C14.1987 91.7558 14.2845 92.0563 14.439 92.4064C14.5329 92.7105 14.6758 93.0438 14.866 93.415C15.3088 94.2788 16.8102 96.0201 18.7348 98.0189C20.2598 99.6473 22.0536 101.394 23.9641 103.087C25.6983 104.666 27.3933 106.119 28.744 107.12C33.0847 110.334 41.9908 116.404 42.3666 116.404C42.5187 116.404 43.2652 116.848 44.0254 117.389C45.6765 118.565 49.2876 120.656 53.8336 123.14C54.9951 123.843 57.6554 125.252 60.9459 126.944C70.7294 132.079 82.1966 137.754 88.9771 140.667C91.1387 141.595 93.4301 142.552 95.749 143.51C97.067 144.076 98.7844 144.778 100.848 145.591C110.436 149.456 119.786 152.971 123.662 154.096C125.111 154.517 125.778 154.785 125.995 155.103C125.967 155.368 125.899 155.776 125.793 156.305C123.922 161.741 121.705 176.127 121.686 183.293C121.685 183.691 121.672 184.067 121.653 184.417C121.633 184.617 121.617 184.744 121.599 184.916C121.471 185.684 121.323 186.139 121.151 186.304C120.873 186.228 120.357 186.039 119.689 185.774C118.843 185.414 117.747 184.927 116.585 184.388C114.223 183.291 111.779 182.234 111.154 182.037C110.528 181.841 108.987 181.215 107.73 180.645C104.815 179.324 99.7045 177.408 92.1795 174.813C71.4634 167.67 47.5673 162.106 27.0057 159.637C24.6228 159.35 20.8972 159.045 17.0108 158.78C13.9963 158.538 11.0237 158.353 8.10925 158.236C6.73399 158.181 5.65153 158.148 4.6996 158.131C2.54515 158.067 1.02671 158.067 0.757548 158.171C0.43478 158.294 0.227272 158.544 0.132251 158.959C0.0506628 159.15 0.0214844 159.377 0.0214844 159.649C0.0214844 159.654 0.0223986 159.665 0.0223986 159.67C0.0223117 159.676 0.0214844 159.683 0.0214844 159.69C0.0214844 159.885 0.0871747 160.228 0.181382 160.636C0.394209 161.89 0.920859 163.698 1.79375 166.278C5.39189 176.914 11.0823 190.729 17.0447 203.745V203.746C17.2666 204.295 17.8723 205.596 18.6562 207.239C23.6633 217.957 28.7481 227.866 32.8531 234.632C34.3271 237.061 35.0946 238.487 35.9224 239.306C36.1042 239.551 36.2439 239.718 36.3164 239.763C36.3373 239.775 36.4274 239.789 36.5477 239.802C37.7924 240.555 39.5048 240.326 43.6993 240.136C44.3625 240.106 45.3686 240.089 46.5918 240.081C48.998 240.115 51.5958 240.144 54.4223 240.161C56.9469 240.177 59.3767 240.205 61.7615 240.239C71.2596 240.421 81.4211 240.726 84.8617 241.005C85.8679 241.086 88.6978 241.3 91.1504 241.48C91.7306 241.522 92.2792 241.57 92.7887 241.622C94.2597 241.812 95.2078 242.013 95.4989 242.22C95.492 242.393 95.4426 242.702 95.3631 243.098C95.2371 243.553 95.0773 244.105 94.8959 244.694C91.0155 257.295 82.3462 287.603 82.3462 288.567C82.3462 288.655 82.3618 288.74 82.3837 288.825C82.3716 288.89 82.3462 288.998 82.3462 289.022C82.3462 289.139 82.5239 289.303 82.8759 289.513C83.7765 290.27 86.023 291.182 91.0361 292.964C99.3656 295.924 109.879 299.845 112.39 300.913C112.474 300.96 112.567 301.007 112.645 301.053C113.204 301.381 113.604 301.764 114.001 302.476C114.143 302.755 114.269 303.051 114.36 303.347C114.65 304.292 115.308 306.147 115.822 307.469C115.88 307.619 115.926 307.745 115.976 307.88C116.291 308.928 116.453 309.634 116.484 310.176C116.455 310.505 116.364 310.821 116.21 311.194C115.726 312.362 115.363 312.553 113.069 312.839C111.638 313.017 110.119 313.414 108.642 313.953C107.693 314.261 106.779 314.657 105.897 315.144C103.435 316.395 101.375 317.971 100.482 319.478C99.8308 320.038 99.2879 320.432 99.0068 320.525C98.6368 320.123 98.0495 319.358 97.4391 318.456C96.7116 317.382 94.9569 315.317 93.2166 313.448C92.9853 313.197 92.7541 312.952 92.5234 312.714C92.3922 312.577 92.2565 312.426 92.1277 312.294C88.9367 309.027 88.2378 308.515 86.8912 308.499C86.8843 308.499 86.8737 308.495 86.8671 308.495C86.8602 308.495 86.8515 308.496 86.8448 308.496C86.8379 308.496 86.8327 308.495 86.8251 308.495C86.8061 308.495 86.7886 308.497 86.7698 308.497C86.7628 308.497 86.756 308.495 86.7492 308.495C86.7176 308.495 86.6862 308.501 86.6545 308.503C84.8027 308.566 83.7684 309.666 83.394 311.973C83.2596 312.801 82.8872 313.726 82.5115 314.218C82.3822 314.317 82.2552 314.456 82.1318 314.629C81.2836 315.571 80.7831 317.492 80.6133 320.127C80.5567 320.736 80.5168 321.352 80.5168 321.966C80.5168 322.79 80.5563 323.69 80.6142 324.624C80.8973 330.51 82.2033 338.223 84.4481 346.228C85.083 348.492 85.8911 351.404 86.2436 352.699C87.2715 356.475 89.116 361.564 91.2129 366.643C91.8027 368.29 92.9472 370.89 94.3099 373.721C95.9654 377.292 97.614 380.515 99.0202 382.817C103.244 389.731 106.666 393.501 110.093 395.018C112.416 396.045 113.881 395.875 115.351 394.405L116.317 393.439L119.341 394.426C119.412 394.449 119.505 394.474 119.579 394.498C120.661 394.927 121.803 395.247 123.233 395.478C123.927 395.637 124.59 395.78 125.109 395.865C128.608 396.441 144.478 396.431 151.636 395.847C154.655 395.602 159.631 395.265 162.693 395.1L168.262 394.8L168.006 396.708C167.862 397.776 167.979 398.613 168.321 399.22C168.707 399.97 169.435 400.353 170.479 400.366C171.492 400.405 172.783 400.109 174.327 399.445L176.606 398.465L178.098 400.092C178.365 400.482 178.652 400.775 178.961 400.98C179.454 401.459 179.858 401.798 179.97 401.798C180.535 401.798 182.263 400.784 183.286 399.853L183.804 399.381C184.014 399.245 184.175 399.167 184.311 399.143C184.399 399.155 184.488 399.181 184.578 399.222L185.737 400.382C187.419 402.064 187.97 401.995 191.427 399.668L193.695 398.141L193.999 398.473L195.238 399.963C197.497 402.681 198.896 402.526 202.272 399.186L204.287 397.191C204.633 396.929 204.923 396.748 205.162 396.645L207.088 397.191C208.186 397.502 209.004 397.713 209.691 397.842L211.283 398.311L212.387 397.742C212.875 397.578 213.401 397.332 214.06 396.998L216.476 395.774L219.044 398.281C219.109 398.344 219.169 398.397 219.233 398.459C219.776 399.009 220.302 399.466 220.808 399.845C223.578 402.029 225.203 401.75 226.02 399.026C226.104 398.743 226.176 398.539 226.255 398.3C226.442 397.769 226.622 397.371 226.728 397.258C226.868 397.308 228.233 398.079 229.901 399.053C231.623 400.06 233.328 400.883 233.689 400.883C234.572 400.883 236.019 399.53 236.019 398.705C236.019 398.701 236.02 398.698 236.02 398.694C236.217 398.466 236.428 398.329 236.615 398.314C236.682 398.333 236.741 398.344 236.819 398.377C237.26 398.563 238.708 398.817 240.039 398.942C242.407 399.164 242.469 399.139 242.997 397.739C243.185 397.243 243.328 396.919 243.542 396.707C243.562 396.691 243.583 396.681 243.603 396.667C243.861 396.523 244.231 396.419 244.756 396.338C244.823 396.333 244.88 396.324 244.953 396.323C244.955 396.323 244.956 396.323 244.959 396.323C245.134 396.316 245.326 396.312 245.54 396.312C245.545 396.312 245.549 396.311 245.554 396.311C245.64 396.311 245.709 396.309 245.802 396.309C245.958 396.309 246.097 396.295 246.244 396.289C246.314 396.285 246.389 396.284 246.456 396.279C248.552 396.131 249.739 395.269 249.741 393.838C249.741 393.245 249.791 393.019 252.896 392.923L256.731 393.024C260.81 393.132 265.859 393.013 271.191 392.722C278.093 392.526 283.046 392.035 291.817 390.848L297.109 390.132L297.982 390.021L298.073 390.101L299.135 391.268C300.246 392.487 301.47 393.224 302.809 393.484C302.827 393.488 302.847 393.488 302.866 393.492C304.13 393.724 305.495 393.536 306.969 392.919C308.582 392.244 310.623 390.361 312.74 387.749C314.037 386.192 315.31 384.397 316.544 382.385C318.082 379.933 319.549 377.234 320.803 374.472C327.306 360.158 331.518 341.751 332.141 328.722C332.328 326.436 332.402 324.7 332.286 324.319C332.261 324.238 332.229 324.022 332.192 323.749C332.022 318.557 331.074 314.741 329.218 313.212C328.718 312.8 327.997 311.834 327.484 310.93C327.453 310.484 327.152 310.003 326.72 309.584C326.318 308.996 325.925 308.766 325.234 308.653C325.042 308.587 324.85 308.54 324.661 308.516C324.632 308.512 324.604 308.511 324.575 308.508C324.53 308.503 324.484 308.495 324.44 308.495C324.435 308.495 324.427 308.497 324.421 308.499C324.407 308.499 324.393 308.495 324.38 308.495C324.19 308.495 323.997 308.525 323.802 308.575C323.004 308.653 322.477 309.041 321.498 310.079C321.21 310.385 320.911 310.656 320.627 310.881C320.382 311.059 320.143 311.225 319.929 311.351C319.688 311.477 319.492 311.533 319.379 311.49C318.885 311.3 318.211 311.658 317.419 312.478C316.889 312.977 316.312 313.729 315.665 314.765C314.864 315.992 314.003 317.524 313.116 319.333C311.899 321.815 310.987 323.634 310.629 324.315C310.494 324.54 310.366 324.753 310.291 324.847C310.044 324.728 308.782 323.573 307.307 322.107C302.128 316.959 296.83 313.343 293.181 312.467C292.359 312.269 291.698 311.499 290.871 309.771C290.234 308.44 288.151 304.265 286.242 300.492C279.77 287.698 276.036 276.103 275.124 265.961C274.977 264.326 274.75 262.112 274.619 261.041C274.567 260.623 274.538 260.298 274.548 259.996C274.614 259.564 274.731 259.191 274.894 258.836C275.323 258.111 276.216 257.162 277.962 255.324C279.932 253.25 282.256 250.628 283.124 249.496C283.993 248.364 284.821 247.335 284.963 247.209C285.828 246.443 287.979 243.01 290.089 239.265C291.161 237.465 292.104 235.701 292.909 234.001C293.8 232.236 294.526 230.668 294.912 229.601C296.042 226.477 296.901 220.952 296.808 217.411C296.632 210.762 295.591 206.4 291.364 194.613C287.259 183.164 286.086 179.015 283.538 166.943C281.634 157.921 280.255 153.374 277.295 146.361L275.078 141.109C275.011 140.447 274.963 139.603 274.935 138.511L274.922 137.863C274.905 136.948 274.894 135.941 274.894 134.697C274.894 132.437 274.846 129.946 274.762 127.37C274.708 124.96 274.634 122.736 274.531 120.596C273.866 103.86 271.889 90.5265 267.593 72.8899C261.394 47.4418 249.494 20.7359 237.876 6.20024C235.56 3.30293 233.743 1.5216 232.314 0.779817C231.897 0.494084 231.559 0.339968 231.261 0.305484L231.26 0.305696ZM128 250.255L131.696 257.647L124.766 285.829L109.982 278.438L128 250.255Z" fill="black"/>
<path d="M180.232 401.752C180.129 401.782 180.04 401.797 179.969 401.797C179.969 401.797 179.97 401.798 179.97 401.798C180.041 401.798 180.129 401.782 180.232 401.752L180.232 401.752Z" fill="#FFD73E"/>
<path d="M199.599 401.393C199.297 401.566 199.011 401.69 198.738 401.766C199.011 401.69 199.297 401.566 199.599 401.393Z" fill="#FFD73E"/>
<path d="M188.914 401.203C188.532 401.384 188.209 401.491 187.916 401.528C188.209 401.491 188.532 401.384 188.914 401.203Z" fill="#FFD73E"/>
<path d="M186.59 401.14C186.765 401.266 186.935 401.363 187.106 401.43C186.935 401.363 186.765 401.266 186.59 401.14Z" fill="#FFD73E"/>
<path d="M196.05 400.846C196.311 401.096 196.564 401.3 196.815 401.457C196.564 401.3 196.311 401.096 196.05 400.846Z" fill="#FFD73E"/>
<path d="M233.493 400.846C233.577 400.87 233.644 400.883 233.689 400.883C233.744 400.883 233.802 400.877 233.861 400.867C233.802 400.877 233.743 400.882 233.688 400.882C233.643 400.882 233.577 400.87 233.493 400.845V400.846Z" fill="#FFD73E"/>
<path d="M234.814 400.411C234.558 400.599 234.29 400.746 234.042 400.823C234.29 400.746 234.558 400.599 234.814 400.411Z" fill="#FFD73E"/>
<path d="M171.29 400.332C171.002 400.365 170.731 400.375 170.478 400.365C170.348 400.363 170.223 400.357 170.102 400.344C170.223 400.357 170.348 400.364 170.479 400.366C170.732 400.376 171.002 400.365 171.29 400.332Z" fill="#FFD73E"/>
<path d="M172.698 400.038C172.36 400.136 172.038 400.213 171.734 400.267C172.038 400.213 172.36 400.136 172.698 400.038Z" fill="#FFD73E"/>
<path d="M173.759 399.676C173.389 399.819 173.035 399.94 172.698 400.038C173.035 399.94 173.389 399.819 173.759 399.676Z" fill="#FFD73E"/>
<path d="M184.084 399.22C184.001 399.259 183.908 399.312 183.803 399.381L183.285 399.852C182.773 400.318 182.086 400.804 181.456 401.174C182.086 400.804 182.774 400.319 183.286 399.853L183.804 399.381C183.909 399.313 184.001 399.259 184.084 399.22V399.22Z" fill="#FFD73E"/>
<path d="M184.31 399.142C184.242 399.154 184.168 399.18 184.084 399.22C184.168 399.18 184.242 399.155 184.31 399.143C184.399 399.155 184.488 399.181 184.578 399.223L184.577 399.222C184.487 399.18 184.398 399.154 184.31 399.142L184.31 399.142Z" fill="#FFD73E"/>
<path d="M242.054 398.997C241.889 399.037 241.686 399.05 241.425 399.045C241.685 399.05 241.889 399.037 242.054 398.997Z" fill="#FFD73E"/>
<path d="M242.339 398.881C242.258 398.933 242.165 398.971 242.055 398.997C242.165 398.971 242.258 398.933 242.339 398.881Z" fill="#FFD73E"/>
<path d="M242.553 398.683C242.522 398.724 242.488 398.761 242.452 398.794C242.488 398.761 242.521 398.724 242.553 398.683Z" fill="#FFD73E"/>
<path d="M236.169 398.541C236.119 398.586 236.068 398.637 236.019 398.695C236.019 398.698 236.018 398.701 236.018 398.704C236.018 398.756 236.013 398.81 236.002 398.865C236.013 398.81 236.019 398.757 236.019 398.705C236.019 398.702 236.02 398.698 236.02 398.695C236.069 398.638 236.119 398.586 236.169 398.541L236.169 398.541Z" fill="#FFD73E"/>
<path d="M237.321 398.527C237.954 398.677 238.968 398.835 239.935 398.93C238.968 398.835 237.954 398.677 237.321 398.527Z" fill="#FFD73E"/>
<path d="M176.605 398.464L174.327 399.444C174.134 399.527 173.945 399.605 173.76 399.676C173.945 399.605 174.134 399.528 174.327 399.445L176.606 398.465L176.605 398.464Z" fill="#FFD73E"/>
<path d="M193.694 398.14L191.425 399.667C190.993 399.958 190.607 400.214 190.258 400.436C190.607 400.214 190.994 399.959 191.426 399.668L193.695 398.141L193.694 398.14Z" fill="#FFD73E"/>
<path d="M225.856 399.507C225.684 399.961 225.482 400.328 225.25 400.61C225.482 400.328 225.684 399.961 225.856 399.507Z" fill="#FFD73E"/>
<path d="M226.521 397.622C226.44 397.802 226.347 398.034 226.253 398.3C226.175 398.538 226.103 398.743 226.019 399.025C225.968 399.195 225.913 399.356 225.856 399.508C225.913 399.356 225.968 399.196 226.019 399.026C226.104 398.744 226.176 398.539 226.254 398.301C226.348 398.035 226.44 397.802 226.521 397.622V397.622Z" fill="#FFD73E"/>
<path d="M226.727 397.257C226.701 397.286 226.67 397.332 226.635 397.393C226.67 397.332 226.702 397.286 226.728 397.258C226.728 397.258 226.727 397.257 226.727 397.257L226.727 397.257Z" fill="#FFD73E"/>
<path d="M243.259 397.116C243.173 397.286 243.09 397.491 242.997 397.739C242.93 397.914 242.872 398.067 242.815 398.202C242.872 398.067 242.931 397.914 242.997 397.739C243.091 397.491 243.173 397.286 243.259 397.116Z" fill="#FFD73E"/>
<path d="M243.541 396.707C243.434 396.813 243.345 396.947 243.259 397.116C243.345 396.947 243.435 396.813 243.542 396.707C243.542 396.707 243.541 396.707 243.541 396.707H243.541Z" fill="#FFD73E"/>
<path d="M244.755 396.338C244.361 396.399 244.055 396.472 243.817 396.566C244.055 396.472 244.362 396.399 244.755 396.338Z" fill="#FFD73E"/>
<path d="M245.529 396.312C245.32 396.312 245.131 396.315 244.959 396.322C244.955 396.322 244.954 396.322 244.952 396.322C244.88 396.326 244.823 396.333 244.756 396.338C244.823 396.333 244.88 396.325 244.953 396.323C244.955 396.323 244.956 396.323 244.958 396.323C245.13 396.316 245.319 396.312 245.529 396.312L245.529 396.312Z" fill="#FFD73E"/>
<path d="M247.198 396.19C246.965 396.23 246.717 396.26 246.455 396.278C246.389 396.283 246.313 396.285 246.244 396.289C246.314 396.285 246.389 396.284 246.456 396.279C246.718 396.261 246.965 396.23 247.198 396.19V396.19Z" fill="#FFD73E"/>
<path d="M201.661 399.775C201.268 400.143 200.904 400.461 200.562 400.73C200.904 400.461 201.268 400.143 201.661 399.775Z" fill="#FFD73E"/>
<path d="M204.764 396.858C204.618 396.949 204.459 397.059 204.286 397.19L202.271 399.185C202.06 399.394 201.857 399.591 201.661 399.774C201.857 399.591 202.061 399.395 202.272 399.186L204.287 397.191C204.46 397.06 204.618 396.949 204.764 396.858V396.858Z" fill="#FFD73E"/>
<path d="M216.475 395.774L214.06 396.997C213.4 397.332 212.874 397.578 212.387 397.742L211.282 398.311L209.691 397.842C209.003 397.713 208.185 397.502 207.087 397.19L205.162 396.645C205.042 396.696 204.91 396.767 204.764 396.858C204.91 396.767 205.043 396.697 205.163 396.646L207.088 397.191C208.186 397.502 209.004 397.713 209.691 397.843L211.283 398.311L212.387 397.742C212.875 397.579 213.401 397.333 214.061 396.998L216.476 395.775L216.475 395.774Z" fill="#FFD73E"/>
<path d="M249.081 395.377C248.896 395.547 248.673 395.694 248.415 395.818C248.673 395.694 248.896 395.547 249.081 395.377Z" fill="#FFD73E"/>
<path d="M111.688 395.562C111.931 395.615 112.165 395.648 112.39 395.663C112.165 395.648 111.931 395.615 111.688 395.562Z" fill="#FFD73E"/>
<path d="M111.018 395.376C111.249 395.452 111.473 395.515 111.688 395.562C111.473 395.515 111.249 395.452 111.018 395.376Z" fill="#FFD73E"/>
<path d="M125.904 395.967C126.525 396.029 127.318 396.083 128.243 396.127C127.318 396.083 126.525 396.029 125.904 395.967Z" fill="#FFD73E"/>
<path d="M122.4 395.323C122.669 395.377 122.941 395.431 123.232 395.478C123.927 395.637 124.59 395.78 125.109 395.866C125.328 395.902 125.594 395.935 125.904 395.967C125.594 395.935 125.327 395.901 125.108 395.865C124.589 395.779 123.926 395.636 123.232 395.477C122.941 395.43 122.669 395.377 122.4 395.323V395.323Z" fill="#FFD73E"/>
<path d="M157.148 395.443C155.144 395.579 153.145 395.724 151.636 395.847C150.741 395.92 149.71 395.984 148.585 396.039C149.711 395.984 150.742 395.921 151.636 395.848C153.146 395.725 155.144 395.579 157.148 395.443V395.443Z" fill="#FFD73E"/>
<path d="M168.261 394.799L162.693 395.099C161.161 395.182 159.152 395.308 157.148 395.443C159.152 395.308 161.162 395.183 162.693 395.1L168.261 394.8V394.799Z" fill="#FFD73E"/>
<path d="M108.806 394.342C109.236 394.603 109.664 394.827 110.092 395.017C109.664 394.827 109.236 394.603 108.806 394.342Z" fill="#FFD73E"/>
<path d="M249.749 393.631C249.741 393.694 249.74 393.763 249.74 393.837C249.74 393.926 249.736 394.014 249.727 394.099C249.736 394.014 249.741 393.927 249.741 393.838C249.741 393.764 249.741 393.694 249.749 393.631V393.631Z" fill="#FFD73E"/>
<path d="M113.654 395.515C113.455 395.579 113.252 395.623 113.042 395.648C113.252 395.623 113.455 395.579 113.654 395.515Z" fill="#FFD73E"/>
<path d="M115.075 394.665C114.615 395.074 114.15 395.356 113.654 395.515C114.15 395.356 114.615 395.074 115.075 394.665Z" fill="#FFD73E"/>
<path d="M116.316 393.438L115.35 394.404C115.258 394.496 115.167 394.583 115.075 394.665C115.167 394.583 115.259 394.497 115.351 394.405L116.317 393.439L119.342 394.426C119.413 394.45 119.505 394.474 119.579 394.498C119.579 394.498 119.579 394.497 119.578 394.497C119.504 394.473 119.412 394.449 119.341 394.426L116.316 393.438Z" fill="#FFD73E"/>
<path d="M302.866 393.492C303.498 393.608 304.155 393.619 304.838 393.524C304.155 393.619 303.498 393.608 302.866 393.492Z" fill="#FFD73E"/>
<path d="M302.311 393.364C302.475 393.411 302.641 393.452 302.809 393.484C302.827 393.488 302.847 393.489 302.866 393.492C302.847 393.488 302.827 393.487 302.808 393.483C302.641 393.451 302.475 393.411 302.311 393.364V393.364Z" fill="#FFD73E"/>
<path d="M249.92 393.312C249.891 393.335 249.867 393.358 249.847 393.382C249.867 393.358 249.891 393.334 249.92 393.312Z" fill="#FFD73E"/>
<path d="M251.092 393.022C250.43 393.088 250.093 393.181 249.92 393.313C250.093 393.181 250.431 393.088 251.092 393.022Z" fill="#FFD73E"/>
<path d="M252.895 392.922C252.507 392.934 252.167 392.949 251.868 392.965C252.167 392.949 252.508 392.935 252.896 392.923L256.731 393.024C258.77 393.078 261.052 393.075 263.491 393.022C261.052 393.075 258.769 393.077 256.73 393.023L252.895 392.922Z" fill="#FFD73E"/>
<path d="M306.969 392.919C306.6 393.074 306.238 393.201 305.883 393.302C306.238 393.201 306.6 393.074 306.969 392.919Z" fill="#FFD73E"/>
<path d="M273.699 392.634C272.886 392.668 272.053 392.697 271.19 392.721C269.857 392.794 268.542 392.857 267.255 392.907C268.542 392.857 269.858 392.795 271.191 392.722C272.054 392.698 272.886 392.668 273.699 392.634V392.634Z" fill="#FFD73E"/>
<path d="M299.989 392.092C300.427 392.458 300.88 392.757 301.35 392.989C300.88 392.757 300.427 392.458 299.989 392.092Z" fill="#FFD73E"/>
<path d="M105.529 391.658C105.753 391.887 105.975 392.105 106.197 392.314C105.976 392.106 105.753 391.887 105.529 391.658Z" fill="#FFD73E"/>
<path d="M285.864 391.614C282.253 392.046 279.236 392.329 276.092 392.513C279.236 392.329 282.253 392.046 285.864 391.614Z" fill="#FFD73E"/>
<path d="M309.665 391.061C309.177 391.501 308.705 391.882 308.253 392.194C308.705 391.882 309.177 391.501 309.665 391.061Z" fill="#FFD73E"/>
<path d="M297.98 390.021L297.108 390.132L291.816 390.847C290.72 390.995 289.683 391.133 288.695 391.261C289.683 391.133 290.721 390.996 291.817 390.848L297.109 390.132L297.981 390.022L297.98 390.021Z" fill="#FFD73E"/>
<path d="M313.708 386.538C313.387 386.956 313.064 387.36 312.739 387.749C312.475 388.076 312.211 388.391 311.95 388.693C312.211 388.391 312.476 388.076 312.74 387.749C313.065 387.36 313.387 386.957 313.708 386.538Z" fill="#FFD73E"/>
<path d="M331.02 339.355C330.728 341.245 330.385 343.183 329.994 345.149C330.385 343.183 330.728 341.245 331.02 339.355Z" fill="#FFD73E"/>
<path d="M332.191 323.749C332.228 324.022 332.26 324.238 332.285 324.319C332.343 324.51 332.355 325.038 332.327 325.806C332.355 325.039 332.344 324.509 332.286 324.319C332.261 324.238 332.228 324.022 332.191 323.749H332.191Z" fill="#FFD73E"/>
<path d="M98.6914 320.159C98.808 320.302 98.9133 320.425 99.0058 320.525C99.006 320.525 99.0065 320.525 99.0068 320.525C98.9143 320.425 98.8081 320.302 98.6914 320.159H98.6914Z" fill="#FFD73E"/>
<path d="M331.686 318.651C331.767 319.09 331.839 319.549 331.902 320.026C331.839 319.549 331.767 319.09 331.686 318.651Z" fill="#FFD73E"/>
<path d="M97.0234 317.898C97.167 318.09 97.3336 318.302 97.4379 318.456C97.7431 318.907 98.0431 319.323 98.3124 319.678C98.0431 319.323 97.744 318.907 97.4388 318.456C97.3344 318.302 97.1671 318.09 97.0234 317.898V317.898Z" fill="#FFD73E"/>
<path d="M330.441 314.773C330.618 315.1 330.78 315.459 330.929 315.849C330.78 315.459 330.618 315.1 330.441 314.773Z" fill="#FFD73E"/>
<path d="M329.554 313.526C329.772 313.752 329.976 314.013 330.166 314.307C329.976 314.013 329.772 313.752 329.554 313.526Z" fill="#FFD73E"/>
<path d="M291.87 311.489C291.97 311.62 292.07 311.737 292.17 311.84C292.07 311.737 291.97 311.62 291.87 311.489Z" fill="#FFD73E"/>
<path d="M91.0415 311.193C91.3686 311.52 91.728 311.886 92.1268 312.294C92.2557 312.426 92.3914 312.577 92.5226 312.714C92.7533 312.953 92.9845 313.197 93.2157 313.448C94.0859 314.382 94.96 315.366 95.7071 316.25C94.96 315.366 94.0868 314.382 93.2166 313.448C92.9854 313.197 92.7542 312.953 92.5235 312.714C92.3923 312.577 92.2566 312.426 92.1277 312.294C91.7289 311.886 91.3686 311.52 91.0415 311.193Z" fill="#FFD73E"/>
<path d="M327.422 310.628C327.455 310.73 327.476 310.831 327.483 310.931C327.476 310.831 327.455 310.73 327.422 310.628Z" fill="#FFD73E"/>
<path d="M113.037 301.313C113.159 301.407 113.273 301.508 113.383 301.621C113.273 301.508 113.159 301.407 113.037 301.313Z" fill="#FFD73E"/>
<path d="M97.5327 295.304C101.925 296.906 106.227 298.509 109.165 299.637C106.227 298.509 101.925 296.906 97.5327 295.304V295.304Z" fill="#FFD73E"/>
<path d="M85.4136 290.854C86.064 291.127 86.8422 291.432 87.7718 291.78C86.8422 291.432 86.064 291.127 85.4136 290.854Z" fill="#FFD73E"/>
<path d="M83.8257 290.121C84.2413 290.341 84.7635 290.582 85.4139 290.854C84.7635 290.582 84.2413 290.341 83.8257 290.121V290.121Z" fill="#FFD73E"/>
<path d="M281.246 289.512C281.765 290.802 282.309 292.104 282.89 293.423C282.308 292.104 281.765 290.803 281.246 289.512Z" fill="#FFD73E"/>
<path d="M82.4785 289.232C82.5228 289.273 82.5782 289.317 82.6447 289.364C82.5785 289.317 82.5227 289.273 82.4785 289.232Z" fill="#FFD73E"/>
<path d="M275.077 258.552C275.008 258.651 274.947 258.746 274.893 258.836C274.812 259.014 274.742 259.196 274.684 259.387C274.742 259.196 274.812 259.014 274.894 258.836C274.947 258.746 275.008 258.651 275.077 258.552Z" fill="#FFD73E"/>
<path d="M279.477 253.698C278.969 254.253 278.454 254.806 277.961 255.324C277.525 255.784 277.141 256.187 276.805 256.546C277.141 256.187 277.526 255.784 277.962 255.324C278.455 254.806 278.969 254.253 279.477 253.698Z" fill="#FFD73E"/>
<path d="M284.316 247.976C283.983 248.39 283.558 248.93 283.123 249.496C282.906 249.779 282.598 250.155 282.228 250.592C282.598 250.155 282.907 249.779 283.124 249.496C283.559 248.93 283.983 248.39 284.316 247.976V247.976Z" fill="#FFD73E"/>
<path d="M285.344 246.801C285.198 246.976 285.07 247.114 284.962 247.209C284.891 247.272 284.649 247.561 284.316 247.975C284.649 247.561 284.892 247.272 284.963 247.209C285.071 247.114 285.198 246.976 285.344 246.801V246.801Z" fill="#FFD73E"/>
<path d="M286.408 245.347C285.998 245.955 285.636 246.452 285.344 246.801C285.636 246.452 285.997 245.956 286.408 245.347Z" fill="#FFD73E"/>
<path d="M93.792 241.767C94.3921 241.864 94.8542 241.964 95.1596 242.066C94.854 241.964 94.3926 241.864 93.792 241.767Z" fill="#FFD73E"/>
<path d="M81.1357 240.793C82.7206 240.864 84.0015 240.935 84.8616 241.005C84.0015 240.935 82.7206 240.864 81.1357 240.793Z" fill="#FFD73E"/>
<path d="M68.8936 240.396C73.5777 240.513 77.9662 240.652 81.136 240.793C77.9662 240.652 73.5777 240.513 68.8936 240.396Z" fill="#FFD73E"/>
<path d="M44.9347 240.1C44.4474 240.109 44.0309 240.12 43.6993 240.135C42.6507 240.183 41.7571 240.233 40.9873 240.269C41.7571 240.233 42.6507 240.184 43.6993 240.136C44.0309 240.121 44.4474 240.109 44.9347 240.1V240.1Z" fill="#FFD73E"/>
<path d="M46.5916 240.08C45.98 240.084 45.4219 240.091 44.9346 240.1C45.4219 240.091 45.98 240.085 46.5916 240.081C48.9978 240.115 51.5956 240.144 54.4221 240.161C56.9467 240.177 59.3765 240.205 61.7613 240.239C59.3765 240.205 56.9467 240.176 54.4221 240.161C51.5956 240.144 48.9978 240.114 46.5916 240.08V240.08Z" fill="#FFD73E"/>
<path d="M36.1602 239.609C36.2269 239.687 36.2802 239.741 36.3165 239.763C36.3375 239.777 36.4274 239.789 36.5478 239.802C36.6256 239.849 36.7044 239.892 36.7863 239.932C36.7044 239.892 36.6256 239.848 36.5478 239.801C36.4275 239.788 36.3374 239.774 36.3165 239.762C36.2802 239.74 36.2269 239.687 36.1602 239.609V239.609Z" fill="#FFD73E"/>
<path d="M35.3008 238.571C35.512 238.858 35.7157 239.1 35.9225 239.305C35.7155 239.1 35.5122 238.858 35.3008 238.571V238.571Z" fill="#FFD73E"/>
<path d="M290.868 237.922C290.617 238.367 290.356 238.815 290.089 239.265C289.561 240.202 289.031 241.118 288.519 241.978C289.031 241.118 289.562 240.201 290.089 239.265C290.357 238.815 290.617 238.367 290.868 237.922V237.922Z" fill="#FFD73E"/>
<path d="M292.279 235.288C291.842 236.153 291.372 237.032 290.868 237.922C291.372 237.032 291.842 236.153 292.279 235.288V235.288Z" fill="#FFD73E"/>
<path d="M293.544 232.719C293.344 233.13 293.131 233.56 292.909 234.001C292.707 234.426 292.497 234.855 292.279 235.288C292.497 234.855 292.708 234.426 292.909 234.001C293.132 233.56 293.344 233.13 293.544 232.719Z" fill="#FFD73E"/>
<path d="M294.561 230.49C294.289 231.139 293.942 231.895 293.544 232.718C293.942 231.895 294.289 231.139 294.561 230.49Z" fill="#FFD73E"/>
<path d="M295.321 228.325C295.19 228.782 295.052 229.211 294.911 229.601C294.815 229.868 294.697 230.165 294.561 230.49C294.697 230.165 294.816 229.868 294.912 229.601C295.053 229.211 295.19 228.782 295.321 228.325Z" fill="#FFD73E"/>
<path d="M296.766 216.23C296.783 216.617 296.796 217.01 296.807 217.411C296.818 217.854 296.815 218.327 296.799 218.823C296.815 218.327 296.819 217.854 296.808 217.411C296.797 217.01 296.783 216.618 296.766 216.23H296.766Z" fill="#FFD73E"/>
<path d="M296.49 212.813C296.577 213.54 296.645 214.265 296.696 215.006C296.645 214.265 296.577 213.54 296.49 212.813Z" fill="#FFD73E"/>
<path d="M294.979 205.55C295.214 206.385 295.424 207.182 295.605 207.939C295.424 207.181 295.214 206.385 294.979 205.55Z" fill="#FFD73E"/>
<path d="M121.499 185.434C121.43 185.74 121.355 185.969 121.275 186.125C121.355 185.969 121.43 185.74 121.499 185.434Z" fill="black"/>
<path d="M6.62793 179.375C7.85577 182.49 9.17114 185.711 10.5468 188.975C9.17114 185.711 7.85577 182.49 6.62793 179.375Z" fill="#FFD73E"/>
<path d="M282.844 163.756C283.07 164.757 283.299 165.815 283.537 166.943C283.856 168.452 284.153 169.837 284.437 171.128C284.153 169.837 283.857 168.452 283.538 166.943C283.3 165.815 283.07 164.757 282.844 163.756Z" fill="black"/>
<path d="M102.854 146.386C105.751 147.543 108.621 148.676 111.258 149.684C108.621 148.676 105.751 147.543 102.854 146.386V146.386Z" fill="#FFD73E"/>
<path d="M274.991 139.971C275.015 140.401 275.043 140.778 275.077 141.109L277.294 146.361L275.078 141.109C275.044 140.778 275.015 140.401 274.991 139.971Z" fill="black"/>
<path d="M274.761 127.37C274.846 129.947 274.894 132.437 274.894 134.697C274.894 132.437 274.846 129.947 274.761 127.37Z" fill="#FFD73E"/>
<path d="M232.339 114.05C232.434 114.442 232.528 114.793 232.621 115.101C232.629 115.126 232.631 115.144 232.637 115.167C232.632 115.144 232.629 115.126 232.622 115.101C232.529 114.794 232.434 114.442 232.339 114.05H232.339Z" fill="#FFD73E"/>
<path d="M29.5098 107.676C30.4542 108.365 31.5057 109.12 32.6514 109.926C31.5059 109.12 30.4541 108.365 29.5098 107.676Z" fill="#FFD73E"/>
<path d="M267.593 72.8901C268.069 74.8424 268.511 76.7338 268.931 78.5911C268.511 76.7341 268.068 74.8421 267.593 72.8901V72.8901Z" fill="#FFD73E"/>
<path d="M230.577 102.954C231.166 107.848 231.768 111.693 232.339 114.049C231.768 111.693 231.166 107.848 230.577 102.954Z" fill="#FFD73E"/>
<path d="M229.154 88.7896C229.604 94.0691 230.086 98.8759 230.577 102.954C230.086 98.8759 229.604 94.0691 229.154 88.7896Z" fill="#FFD73E"/>
<path d="M227.567 65.3438C227.657 67.0662 227.751 68.7784 227.85 70.4765C227.911 71.7126 227.976 72.8541 228.044 73.8701C228.076 74.3507 228.116 74.8554 228.15 75.3422C228.455 80.0403 228.795 84.5661 229.154 88.7897C228.795 84.5661 228.456 80.0403 228.151 75.3422C228.117 74.8554 228.077 74.3507 228.045 73.8701C227.977 72.8541 227.912 71.7126 227.851 70.4765C227.752 68.7787 227.657 67.0659 227.567 65.3438Z" fill="#FFD73E"/>
<path d="M265.013 63.3142C265.419 64.691 265.807 66.0685 266.183 67.4456C265.807 66.0687 265.419 64.6908 265.013 63.3142Z" fill="#FFD73E"/>
<path d="M263.723 59.1006C264.167 60.5024 264.599 61.9076 265.013 63.3142C264.598 61.9074 264.167 60.5026 263.723 59.1006Z" fill="#FFD73E"/>
<path d="M260.294 49.0735C261.082 51.2135 261.84 53.3758 262.567 55.5507C261.84 53.376 261.082 51.2133 260.294 49.0735Z" fill="#FFD73E"/>
<path d="M254.767 35.4526C255.743 37.6416 256.694 39.8784 257.617 42.1522C256.694 39.8784 255.743 37.6416 254.767 35.4526Z" fill="#FFD73E"/>
<path d="M252.786 31.1418C253.456 32.5552 254.117 33.9935 254.767 35.4528C254.117 33.9935 253.456 32.5552 252.786 31.1418Z" fill="#FFD73E"/>
<path d="M250.75 26.979C251.437 28.3399 252.116 29.7283 252.786 31.1417C252.116 29.7283 251.437 28.3399 250.75 26.979Z" fill="#FFD73E"/>
<path d="M244.403 15.5718C245.122 16.7357 245.838 17.9375 246.549 19.1735C245.838 17.9375 245.122 16.7357 244.403 15.5718Z" fill="#FFD73E"/>
<path d="M241.146 10.5981C242.236 12.1637 243.322 13.8247 244.402 15.571C243.322 13.8251 242.235 12.1634 241.146 10.5981Z" fill="#FFD73E"/>
<path d="M237.031 5.16602C237.305 5.49345 237.587 5.83827 237.876 6.20043C238.239 6.65467 238.603 7.11993 238.966 7.59753C238.603 7.12028 238.24 6.65435 237.877 6.20043C237.588 5.83827 237.305 5.49345 237.031 5.16602V5.16602Z" fill="#FFD73E"/>
<path d="M234.762 2.68188C235.454 3.35705 236.209 4.18378 237.031 5.1661C236.209 4.18355 235.454 3.35714 234.762 2.68188Z" fill="#FFD73E"/>
<path d="M226.995 45.1912C227.066 51.4471 227.173 57.0095 227.314 60.1491C227.392 61.888 227.477 63.6205 227.567 65.3427C227.477 63.6202 227.393 61.8883 227.315 60.1491C227.174 57.0095 227.066 51.4471 226.995 45.1912Z" fill="#FFD73E"/>
<path d="M226.954 17.3477C226.918 19.7778 226.898 22.863 226.893 26.2689C226.857 30.1683 226.872 34.3695 226.935 38.7685C226.951 40.9441 226.971 43.1059 226.995 45.1912C226.971 43.1059 226.952 40.9441 226.936 38.7685C226.873 34.3695 226.858 30.1683 226.894 26.2689C226.899 22.863 226.918 19.7778 226.954 17.3477V17.3477Z" fill="#FFD73E"/>
<path d="M227.062 13.1252C227.017 14.0707 226.981 15.5252 226.954 17.3478C226.981 15.5252 227.017 14.0707 227.062 13.1252Z" fill="#FFD73E"/>
<path d="M229.668 0.873826C228.643 1.80152 228.093 3.46787 227.574 7.79854C227.569 7.83966 227.564 7.87518 227.56 7.91824C227.411 9.1719 227.265 10.6096 227.11 12.3552C227.093 12.552 227.077 12.81 227.062 13.1252C227.077 12.81 227.094 12.552 227.111 12.3552C227.265 10.6096 227.412 9.17189 227.56 7.91824C227.566 7.8752 227.57 7.83968 227.575 7.79854C228.094 3.46788 228.643 1.80152 229.669 0.873826C229.668 0.873986 229.668 0.873665 229.668 0.873826H229.668Z" fill="#FFD73E"/>
<path d="M230.532 39.1013L230.535 42.5833C230.536 43.4104 230.552 44.4359 230.574 45.5446L230.645 48.2021C230.969 59.6429 231.994 79.1799 232.578 83.6975C232.676 84.4521 232.888 86.8189 233.051 88.9571C233.438 94.0633 235.385 109.225 236.013 112.026C236.76 115.362 237.106 115.734 240.46 116.815C243.462 117.782 245.854 118.936 247.128 119.896C247.536 120.172 247.803 120.41 247.878 120.593C248.359 121.199 248.184 121.651 247.143 121.799C246.595 121.877 245.051 121.611 243.713 121.207C239.84 120.039 228.322 117.826 224.103 117.438C223.421 117.376 222.69 117.324 221.936 117.276C219.116 117.151 215.865 117.126 211.549 117.129C208.827 117.132 206.412 117.169 204.114 117.231C198.852 117.459 193.7 117.873 189.597 118.451C176.793 120.256 172.697 121.125 163.299 124.028C161.042 124.725 159.492 125.188 158.477 125.57C158.198 125.681 157.944 125.787 157.724 125.885C156.236 126.611 156.969 127.162 158.621 128.908C158.711 129.004 158.786 129.088 158.873 129.182C159.366 129.66 159.8 130.153 160.17 130.641C161.515 132.258 162.006 133.278 161.692 133.787C161.154 134.657 159.988 134.213 157.655 132.249C150.704 126.399 131.621 116.148 116.647 110.221C98.0351 102.854 78.8251 97.5123 59.0198 94.1971C53.6988 93.3064 53.6241 93.0454 53.3636 96.466C53.3279 97.7047 53.3029 99.1544 53.3029 100.773C53.3029 102.465 53.315 103.779 53.3494 104.884C53.8574 109.774 55.3027 114.333 57.6282 118.247L58.5572 119.812C59.1333 120.619 59.6771 121.224 60.1285 121.506C60.4345 121.698 61.1897 122.106 62.1357 122.606L71.9805 127.513C78.894 130.959 84.6566 133.778 84.7866 133.778C84.9166 133.778 86.633 134.526 88.6009 135.441C102.031 141.681 127.957 151.187 135.083 152.483C137.935 153.002 138.496 153.203 138.584 154.058C138.59 154.089 138.601 154.12 138.601 154.151C138.601 154.177 138.594 154.201 138.593 154.227C138.596 154.281 138.601 154.327 138.601 154.386C138.601 154.981 138.261 155.298 137.572 155.347C137.196 155.373 136.661 155.38 136.061 155.373C135.47 155.396 134.779 155.374 133.988 155.307C132.811 155.249 131.716 155.161 131.11 155.064C130.814 155.048 130.574 155.041 130.372 155.039C129.507 155.475 128.697 158.359 127.443 165.232C126.373 171.097 125.686 178.045 125.442 184.601C125.421 188.423 125.518 193.033 125.737 198.703C125.775 199.079 125.812 199.462 125.856 199.819C126.045 201.355 126.422 207.666 126.695 213.844C127.486 231.772 128.49 238.553 131.49 246.231C132.768 249.501 134.27 252.481 136.034 255.216C137.703 257.766 139.618 260.131 141.798 262.323C143.433 263.968 145.269 265.552 147.217 267.032C149.855 268.986 152.793 270.784 156.077 272.462C158.045 273.468 160.836 274.656 162.278 275.102C163.641 275.523 164.524 275.963 164.882 276.389C165.048 276.57 165.128 276.757 165.128 276.969C165.128 277.046 165.114 277.117 165.094 277.185C165.015 278.327 163.406 278.326 159.183 277.283C151.815 275.463 141.545 268.48 136.032 261.542L134.201 259.239C134.019 259.113 133.866 259.07 133.738 259.131L133.473 260.857C133.294 262.026 132.936 264.835 132.678 267.099C131.731 275.414 125.476 297.668 121.054 308.454C120.567 309.642 120.15 310.749 119.96 311.336C119.917 311.514 119.888 311.667 119.871 311.797C119.978 312.005 120.796 312.362 121.793 312.625C125.462 313.59 130.4 316.281 132.472 318.444C134.527 320.588 134.976 321.824 134.102 321.951C133.591 322.173 132.636 321.903 131.645 321.188C131.187 320.956 130.681 320.676 130.122 320.336C127.205 318.564 125.496 317.7 123.416 317.063C123.29 317.025 123.164 316.991 123.038 316.955C122.408 316.774 121.746 316.607 120.993 316.442C114.541 315.027 109.02 315.96 105.245 319.001C104.939 319.277 104.621 319.574 104.269 319.918C103.991 320.189 103.728 320.462 103.476 320.732C103.211 321.047 102.959 321.375 102.721 321.718C101.941 322.845 101.624 323.336 101.648 323.8C101.723 324.037 101.845 324.335 101.997 324.665C102.041 324.737 102.078 324.802 102.129 324.883C104.01 327.898 106.136 332.36 107.404 335.956C109.275 341.258 109.447 343.249 108.038 343.249C107.461 343.249 106.789 342.365 105.865 340.391C103.601 335.551 100.502 329.777 97.8553 325.244C95.5617 321.393 93.468 318.212 92.7475 317.646C92.6201 317.571 92.5355 317.582 92.5099 317.709C92.4024 318.238 93.5822 323.126 94.9977 328.101C95.3858 329.241 95.577 330.023 95.5649 330.548C95.5753 330.965 95.4598 331.224 95.2076 331.47C94.7315 331.933 94.3388 331.721 93.17 330.373C90.7846 327.62 88.2918 319.607 88.2918 314.69C88.2918 313.839 88.1731 313.157 87.9497 312.672C87.8591 312.489 87.7624 312.338 87.6594 312.235C87.4653 312.04 87.3232 311.916 87.2172 311.881C87.1436 311.911 87.0753 311.966 87.0144 312.048C86.9541 312.241 86.9356 312.685 86.9287 313.289C86.9529 313.782 86.9957 314.401 87.059 315.226C87.3576 319.123 88.1205 322.658 89.729 327.601C90.2435 329.182 90.5484 330.777 90.407 331.145C89.6951 333 87.2821 330.692 85.6083 326.556C84.7391 324.407 84.6814 324.356 84.6579 325.71C84.5884 329.726 87.0099 340.856 90.4142 352.167C95.9516 370.565 105.055 387.36 111.261 390.626C111.982 391.006 112.303 391.136 112.621 390.914C112.718 390.824 112.828 390.704 112.949 390.569C113.058 390.426 113.175 390.259 113.319 390.04C114.017 388.976 114.154 387.486 114.281 379.552C114.392 372.617 114.573 370.25 115.008 370.083C116.529 369.5 117.578 371.96 118.01 376.896C118.346 379.346 118.509 382.224 118.402 385.087L118.259 388.92L118.438 389.029L119.85 389.624C123.336 391.093 124.676 391.406 131.835 391.474C133.467 391.483 135.054 391.491 137.458 391.493C147.088 391.477 156.953 391.075 159.659 390.576C160.046 390.505 162.659 390.298 165.467 390.116C169.625 389.847 170.604 389.647 170.747 389.042C170.948 388.187 170.593 387.531 164.901 378.237C149.841 353.648 140.242 333.281 136.88 318.781C136.32 316.366 135.946 313.986 135.765 311.957C135.591 310.583 135.49 309.388 135.477 308.469C135.415 307.596 135.442 307.113 135.591 306.887C135.646 306.668 135.72 306.516 135.816 306.457C135.958 306.369 136.116 306.341 136.28 306.355C136.322 306.328 136.366 306.306 136.413 306.298C136.914 306.198 137.235 306.492 137.446 307.237C137.591 307.493 137.687 307.781 137.687 308.077C137.687 308.114 137.705 308.213 137.719 308.295C139.179 314.146 143.22 327.244 144.858 331.358C146.457 335.377 149.56 342.535 151.393 346.537C151.888 347.554 152.39 348.577 152.915 349.617C153.237 350.144 154.209 351.951 155.265 353.997C156.434 356.261 157.76 358.731 158.211 359.486C158.663 360.24 159.713 362.093 160.545 363.602C161.376 365.111 162.41 366.861 162.841 367.489C163.273 368.118 164.144 369.559 164.777 370.691C165.41 371.823 167.909 375.964 170.331 379.893C172.689 383.721 174.111 386.336 174.562 387.647C174.662 387.895 174.733 388.099 174.733 388.194C174.733 388.214 174.726 388.247 174.724 388.27C174.727 388.298 174.733 388.33 174.733 388.355C174.732 389.079 174.124 390.958 173.38 392.53C172.746 393.871 172.319 394.993 172.317 395.295C172.511 395.276 172.917 395.129 173.411 394.917C173.788 394.725 174.215 394.497 174.666 394.24C176.266 393.324 177.331 392.967 178.14 393.191C178.684 393.292 179.074 393.676 179.451 394.348C179.52 394.462 179.588 394.584 179.655 394.715L179.867 395.127C180.083 395.535 180.246 395.829 180.367 396.024C180.528 396.071 180.708 396.048 180.919 395.957L182.368 394.715C182.752 394.387 183.144 394.098 183.519 393.843C183.535 393.832 183.548 393.823 183.564 393.812C183.78 393.666 183.994 393.523 184.182 393.418C184.456 393.233 184.683 393.1 184.775 393.1C184.794 393.1 184.824 393.114 184.851 393.125C184.896 393.114 184.943 393.101 184.978 393.101C185.184 393.101 185.495 393.296 185.826 393.603C186.204 393.877 186.567 394.324 186.942 394.958C187.025 395.1 187.114 395.229 187.202 395.358C187.614 395.895 188 396.277 188.172 396.293C188.31 396.268 188.678 396.074 189.189 395.763C189.703 395.433 190.356 394.977 191.022 394.473C192.165 393.611 193.426 392.887 194.08 392.697C194.121 392.681 194.151 392.675 194.182 392.666C194.203 392.659 194.231 392.643 194.242 392.643V392.644C194.243 392.644 194.25 392.649 194.252 392.649C194.257 392.649 194.268 392.644 194.274 392.644C194.28 392.644 194.294 392.651 194.303 392.653C194.319 392.651 194.344 392.644 194.357 392.644C194.924 392.644 195.807 393.424 196.688 394.705C197.882 396.441 198.375 396.887 199.659 395.793C199.795 395.668 199.935 395.537 200.085 395.394C200.502 394.993 200.976 394.495 201.581 393.829C202.641 392.665 203.481 392.011 204.412 391.797C204.506 391.755 204.585 391.729 204.638 391.729C204.658 391.729 204.706 391.741 204.73 391.743C205.584 391.64 206.539 391.88 207.82 392.415C208.338 392.631 208.822 392.817 209.18 392.943C209.4 392.968 209.584 392.971 209.698 392.929C209.608 392.643 209.296 391.998 208.869 391.205C208.482 390.694 208.181 390.183 207.949 389.602L207.433 388.824L207.428 388.638L206.976 387.841L206.861 378.694C206.703 366.199 205.203 350.33 202.5 332.485C201.577 326.899 200.541 321.339 199.399 315.925C199.008 314.201 198.569 312.298 198.023 309.965C197.572 308.044 197.235 306.521 196.982 305.278C196.619 303.78 196.406 302.799 196.361 302.209C196.361 302.207 196.361 302.206 196.361 302.206C196.361 302.204 196.359 302.199 196.359 302.199C196.239 301.68 196.279 301.382 196.492 301.251C196.511 301.19 196.534 301.138 196.564 301.108C197.142 300.53 197.674 300.794 198.533 302.287C198.922 302.889 199.329 303.697 199.749 304.703C199.753 304.71 199.756 304.716 199.76 304.723C201.517 308.526 202.94 313.725 204.481 321.98C205.044 324.998 205.666 327.646 205.862 327.865C206.058 328.084 206.352 327.261 206.516 326.036C206.888 323.25 209.748 313.877 210.937 311.545C211.466 310.508 211.963 309.979 212.432 309.948C212.79 309.757 213.107 309.874 213.377 310.312C213.405 310.356 213.387 310.596 213.351 310.917C213.351 311.115 213.332 311.358 213.299 311.633C213.237 312.879 212.832 314.99 212.043 318.549C207.528 338.917 207.405 339.994 208.556 349.03C209.775 358.6 210.862 373.603 210.863 380.854C210.864 386.255 210.954 386.857 212.103 389.201C212.937 390.9 213.405 391.617 213.996 391.644C214.221 391.57 214.534 391.448 214.884 391.299C214.997 391.225 215.108 391.152 215.236 391.055C215.827 390.608 216.348 390.377 216.867 390.376L217.348 390.147L217.385 390.126L217.387 390.128L217.39 390.127L217.888 390.676C218.529 391.046 219.226 391.76 220.093 392.87C220.652 393.586 221.195 394.225 221.621 394.684C222.006 395.033 222.303 395.237 222.528 395.293C222.661 395.093 222.756 394.583 222.756 393.983C222.756 392.145 223.501 390.812 224.528 390.812C224.981 390.812 226.773 391.734 228.513 392.86C230.252 393.987 231.787 394.913 231.923 394.919C232.06 394.924 232.162 393.848 232.152 392.527C232.151 392.442 232.152 392.377 232.152 392.298C232.14 392.04 232.145 391.804 232.162 391.582C232.197 390.503 232.355 390.17 232.847 390.039C232.997 389.948 233.168 389.897 233.362 389.897C233.402 389.897 233.467 389.937 233.541 389.998C234.018 390.096 234.382 390.519 234.814 391.429C235.301 392.454 236.072 393.186 237.01 393.513C237.591 393.716 238.133 393.844 238.427 393.86C238.441 393.859 238.462 393.86 238.474 393.858C238.571 393.799 238.616 393.695 238.614 393.538C238.515 393.161 238.23 392.472 237.842 391.713C236.944 389.951 236.92 389.715 237.579 389.057C238.238 388.398 238.459 388.487 240.071 390.062C241.008 390.976 241.565 391.414 242.197 391.583H242.198C242.286 391.607 242.379 391.619 242.471 391.633C242.518 391.64 242.563 391.65 242.612 391.655C242.613 391.655 242.613 391.655 242.615 391.655C242.875 391.678 243.161 391.673 243.491 391.643L245.128 391.498L245.078 391.419L244.512 390.678L243.349 389.275C242.755 388.557 242.23 387.777 241.892 387.148C241.847 387.07 241.808 386.993 241.774 386.917C241.61 386.58 241.508 386.3 241.508 386.128C241.508 386.113 241.517 386.077 241.521 386.056C241.519 386.034 241.508 386.004 241.508 385.986C241.508 385.552 242.001 384.368 242.943 382.501C244.067 380.035 245.526 377.125 246.088 376.405C247.93 374.045 257.099 355.846 259.799 349.192C266.542 332.577 269.301 319.721 270.988 297.053C271.235 293.733 271.421 291.497 271.611 289.933C271.711 288.815 271.81 288.096 271.976 287.795C272.298 286.702 272.711 286.897 273.425 287.611C274.553 288.738 274.74 299.642 273.784 308.5C271.816 326.743 267.875 341.191 259.627 358.695C258.535 361.13 257.582 363.152 257.057 364.056C256.971 364.204 256.762 364.588 256.625 364.831C254.83 368.377 252.867 372.063 250.71 375.947C248.266 380.349 246.214 384.209 245.743 385.273C245.711 385.348 245.711 385.365 245.694 385.412C245.668 385.493 245.663 385.538 245.652 385.594C245.683 385.863 245.976 386.434 246.334 386.908C246.865 387.61 249.508 388.053 253.47 388.261C255.329 388.287 257.701 388.297 260.926 388.297C263.112 388.297 265.28 388.27 267.385 388.231C274.093 387.971 281.658 387.412 288.992 386.573C291.491 386.267 293.65 385.99 294.921 385.796C296.248 385.533 296.661 385.173 296.839 384.161C296.843 384.1 296.85 384.042 296.85 383.981C296.85 383.661 296.895 383.364 296.973 383.097C297.085 382.259 297.28 381.982 297.838 381.915C298.099 381.791 298.384 381.787 298.657 381.94C299.221 382.059 299.486 382.463 299.768 383.495C300.373 385.711 302.1 388.237 303.312 388.795C303.397 388.829 303.482 388.859 303.566 388.884C303.593 388.889 303.621 388.902 303.647 388.905C303.649 388.906 303.649 388.905 303.651 388.905C305.275 389.136 307.807 387.158 310.637 383.448C319.517 371.81 326.839 349.205 328.116 329.834C328.138 329.28 328.164 328.744 328.181 328.154L328.352 322.358C328.35 322.248 328.343 322.187 328.34 322.094C328.313 321.961 328.288 321.839 328.266 321.735L327.709 324.786C327.335 327.741 326.684 330.519 325.956 332.537C325.647 333.469 325.336 334.161 325.011 334.635C324.606 335.311 324.204 335.701 323.834 335.701C323.672 335.701 323.553 335.633 323.461 335.478C323.192 335.475 323.041 335.387 323.01 334.819C322.956 334.325 323.015 333.469 323.149 331.928C323.247 330.799 323.351 329.714 323.445 328.797C323.557 327.242 323.702 325.666 323.846 324.577C324.366 320.669 324.438 312.406 323.966 312.158C323.795 312.153 323.582 312.287 323.36 312.524C322.84 313.266 322.48 315.11 322.267 318.11C321.879 323.574 320.835 328.886 319.681 332.055C319.584 332.328 319.485 332.582 319.385 332.822C319.384 332.825 319.384 332.829 319.382 332.832C318.818 334.191 318.225 335.014 317.675 335.014C317.673 335.014 317.671 335.014 317.671 335.014C317.238 335.014 316.961 334.895 316.822 334.503C316.56 333.835 316.692 332.39 317.158 329.479C317.536 327.115 317.964 323.226 318.109 320.836L318.351 316.858C318.246 316.946 318.122 317.085 317.978 317.279L316.533 320.15C312.06 329.047 307.143 342.824 304.208 354.681C302.777 360.461 302.449 361.313 301.651 361.313C301.643 361.313 301.638 361.311 301.628 361.311C301.623 361.311 301.616 361.313 301.611 361.313C301.41 361.313 301.255 361.277 301.129 361.194C301.097 361.172 301.067 361.146 301.038 361.116C300.904 360.977 300.812 360.74 300.744 360.373C300.528 359.71 300.486 358.652 300.585 357.303C300.689 352.299 302.711 344.589 306.786 333.667L308.606 328.786C308.702 328.14 308.31 327.6 306.936 326.089L303.746 323.038C297.945 317.491 293.659 314.97 289.134 314.687C288.845 314.68 288.545 314.675 288.207 314.673C287.786 314.672 287.353 314.69 286.915 314.721C286.354 314.772 285.789 314.843 285.21 314.954C282.126 315.548 277.896 317.261 276.586 318.447C275.864 319.1 275.715 319.159 275.246 318.558C275.071 318.487 274.971 318.341 274.945 318.137C274.485 317.43 274.742 317.074 276.819 315.078C276.9 314.999 276.981 314.934 277.063 314.858C277.081 314.841 277.097 314.825 277.115 314.808C277.134 314.791 277.155 314.776 277.173 314.759C279.459 312.671 281.724 311.657 285.529 311.02C286.473 310.861 287.244 310.525 287.244 310.272C287.244 310.019 285.736 306.889 283.893 303.318C276.678 289.341 272.918 278.275 271.661 267.325C271.358 264.684 270.984 262.38 270.83 262.206C270.677 262.032 268.801 263.338 266.663 265.108C264.525 266.877 261.949 268.872 260.939 269.54C259.929 270.208 258.339 271.341 257.407 272.057C254.653 274.173 247.326 278.046 243.816 279.241C241.091 280.169 240.49 280.246 240.16 279.711C240.076 279.576 240.028 279.422 239.994 279.265C239.876 279.077 239.824 278.894 239.892 278.785C239.9 278.771 239.938 278.74 239.967 278.713C240.024 278.243 240.267 277.844 240.627 277.844C241.095 277.844 249.297 272.966 253.171 270.383C259.562 266.124 267.264 259.839 272.735 254.529C274.351 252.882 275.96 251.177 277.435 249.541C279.735 246.836 282.68 243.061 284.395 240.659C284.842 239.998 285.268 239.353 285.667 238.739C285.713 238.652 285.756 238.569 285.776 238.514C285.911 238.135 286.394 237.287 286.849 236.629L287.576 235.578C287.601 235.525 287.627 235.472 287.644 235.43L285.422 235.167C282.151 234.779 278.335 232.736 275.968 230.104C272.781 226.558 271.265 222.286 271.228 216.761C271.226 216.647 271.224 216.533 271.224 216.418C271.224 216.392 271.223 216.366 271.223 216.34C271.223 216.25 271.227 216.164 271.229 216.075C271.23 215.926 271.232 215.776 271.237 215.625C271.363 211.289 272.374 207.967 274.367 205.328C274.747 204.794 275.163 204.29 275.612 203.813C275.622 203.803 275.631 203.791 275.641 203.78C275.68 203.739 275.719 203.697 275.759 203.656C278.702 200.453 281.956 199.055 286.443 198.988C287.781 198.968 288.881 198.84 289.041 198.696C289.053 198.671 289.058 198.644 289.062 198.617C289.031 198.383 288.518 196.906 287.883 195.231C284.697 186.82 282.37 178.9 280.844 171.279C279.548 164.802 277.865 158.098 276.424 153.671C274.859 148.866 271.212 141.119 269.189 138.303C268.303 137.069 267.577 135.956 267.577 135.83C267.577 135.704 266.445 134.126 265.062 132.322C263.412 130.172 262.616 128.835 262.6 128.1C262.524 127.617 262.738 127.373 263.249 127.373C263.274 127.373 263.301 127.377 263.326 127.378C263.346 127.376 263.363 127.373 263.384 127.373C263.395 127.373 263.417 127.38 263.431 127.383C263.502 127.378 263.573 127.373 263.653 127.373C264.446 127.373 265.681 128.373 268.018 130.91L271.278 134.447L271.215 128.865L271.096 124.627C271.062 123.393 271.012 122.159 270.959 120.925C270.336 109.443 268.613 94.7172 266.612 84.3505C266.5 83.7807 266.386 83.2123 266.27 82.6443C264.941 76.2632 261.7 64.1618 259.408 57.0742C256.932 49.4191 256.907 49.3827 251.527 45.7411C245.441 41.6218 240.35 39.7473 233.848 39.2327L232.202 39.1024L230.532 39.1013ZM258.859 159.656H258.859C264.475 159.723 269.833 163.123 272.536 168.936C274.228 172.573 274.211 178.139 272.499 181.798C271.048 184.896 268.087 187.83 265.069 189.162C262.253 190.403 257.485 190.748 255.158 189.878C250.401 188.099 247.221 185.222 245.239 180.903C243.667 177.479 243.604 172.133 245.094 168.799C246.7 165.207 248.968 162.801 252.292 161.165C254.425 160.115 256.661 159.63 258.859 159.656H258.859ZM5.74029 160.897C4.98261 160.909 4.53328 160.963 4.47272 161.066C4.23748 161.468 5.87384 166.103 9.93603 176.538C12.4023 182.873 13.9208 186.475 18.9957 198.034C22.6916 206.452 30.793 222.889 33.2033 226.859C34.3233 228.704 35.2391 230.334 35.2391 230.481C35.2391 230.505 35.2891 230.6 35.3266 230.679C35.848 231.566 36.2817 232.284 36.6254 232.825C36.7314 232.988 36.8291 233.143 36.9407 233.311L37.759 234.545L38.5067 235.647L42.3674 235.697L45.2875 235.56C52.2114 235.233 76.4721 235.908 90.9896 236.832C91.5285 236.866 91.8333 236.893 92.309 236.925C97.6587 237.197 99.1266 237.35 99.6535 237.901C99.7569 237.973 99.8327 238.051 99.8866 238.137C100.257 238.726 99.8161 240.719 98.0179 246.598C93.4075 261.67 88.108 280.19 86.9448 285.146C86.7763 285.945 86.7281 286.369 86.7759 286.503C87.0463 286.675 88.9325 287.393 91.1575 288.168C105.483 293.153 114.064 296.451 115.987 297.711C116.083 297.774 116.187 297.872 116.293 297.985L116.888 298.263L117.264 299.456C117.465 299.852 117.648 300.275 117.787 300.693C118.208 301.96 118.69 302.998 118.859 302.998C119.028 302.998 119.939 300.785 120.884 298.081C122.591 293.195 124.105 287.891 123.862 287.648C123.792 287.578 119.836 285.646 115.071 283.355C110.307 281.063 106.32 279.1 106.212 278.992C105.614 278.394 106.205 276.307 107.587 274.137C108.451 272.779 109.297 271.36 109.467 270.983C109.81 270.221 112.847 265.862 118.026 258.699C119.91 256.094 121.76 253.516 122.137 252.969C122.515 252.422 123.813 250.6 125.022 248.921L126.706 246.581C126.994 246.108 127.148 245.804 127.162 245.672L126.313 242.761C124.479 236.468 123.14 227.334 123.075 220.673C123.057 218.787 122.839 213.641 122.591 209.239C122.343 204.837 122.005 198.701 121.84 195.603L121.56 190.369L121.534 189.969L118.933 188.656C117.5 187.933 113.777 186.28 110.658 184.984C85.5901 174.564 62.5056 168.033 35.6963 163.773C27.0121 162.393 12.1111 160.984 6.5977 160.898C6.27962 160.893 5.99272 160.893 5.74016 160.897L5.74029 160.897ZM168.683 164.643H168.684C168.99 164.636 169.296 164.642 169.602 164.654C172.23 164.691 173.295 164.937 175.297 165.875C177.503 166.909 179.516 168.583 181.078 170.632C181.647 171.346 182.105 172.049 182.471 172.787C182.611 173.043 182.746 173.302 182.871 173.565C183.877 175.682 184.064 176.696 184.046 179.968C184.029 183.298 183.838 184.239 182.713 186.532C181.203 189.607 178.286 192.409 174.962 193.975C171.699 195.512 165.876 195.512 162.613 193.975C158.584 192.077 155.652 188.753 154.263 184.939C154.098 184.538 153.981 184.168 153.895 183.795C153.204 181.291 153.164 178.624 153.902 176.04C155.263 171.277 157.981 168.02 162.385 165.873C164.46 164.861 165.468 164.657 168.569 164.648C168.607 164.648 168.645 164.644 168.682 164.643H168.683ZM226.005 183.769H226.005C227.732 183.828 228.703 184.349 228.703 185.266C228.703 186.371 227.426 188.54 226.317 189.316C225.927 189.59 225.585 189.766 225.243 189.866C225.192 189.884 225.139 189.898 225.088 189.91C225.053 189.917 225.017 189.924 224.981 189.93C224.912 189.94 224.841 189.948 224.768 189.948C224.157 189.982 223.481 189.762 222.483 189.264C221.704 188.875 220.719 187.97 220.295 187.252C219.821 186.45 219.662 186.12 219.829 185.762C219.835 185.741 219.836 185.717 219.843 185.698C219.928 185.477 220.115 185.271 220.387 185.083C220.392 185.076 220.396 185.073 220.403 185.066C220.971 184.498 222.259 184.072 224.034 183.866C224.769 183.781 225.429 183.749 226.005 183.769L226.005 183.769ZM225.534 195.883H225.535C226.054 195.886 226.547 195.953 227.056 196.068C228.062 196.294 232.291 198.049 236.454 199.969C240.821 201.982 243.462 203.086 245.531 203.498C246.715 203.635 247.894 203.64 249.01 203.501C249.822 203.329 250.66 203.046 251.633 202.656C255.119 201.262 255.057 201.271 255.383 202.12C255.75 203.078 254.055 205.004 251.869 206.112C250.625 206.742 250.024 207.064 249.678 207.712C249.504 208.187 249.353 208.797 249.224 209.578C249.179 209.928 249.134 210.318 249.083 210.781C248.662 214.656 247.333 220.18 244.942 227.991C241.175 240.294 236.088 250.527 231.014 256.007C225.967 261.458 221.103 262.999 215.613 260.887C215.119 260.697 214.625 260.459 214.132 260.199C213.648 259.975 213.219 259.723 212.764 259.392C203.164 253.063 194.276 234.053 191.649 213.355C191.434 211.662 191.21 210.524 190.944 209.825C190.934 209.798 190.922 209.775 190.912 209.749C190.868 209.64 190.823 209.535 190.776 209.449C190.768 209.432 190.757 209.421 190.749 209.405C190.641 209.218 190.526 209.085 190.403 209.01C190.092 208.822 189.364 208.242 188.598 207.582H188.598C188.342 207.362 188.083 207.133 187.833 206.907C186.562 205.755 186.135 205.081 186.313 204.51C186.314 204.495 186.319 204.48 186.323 204.464C186.325 204.461 186.325 204.458 186.326 204.454C186.327 204.452 186.327 204.451 186.327 204.451C186.341 204.384 186.367 204.324 186.403 204.27C186.521 203.997 186.648 203.844 187.025 203.871C187.21 203.878 187.46 203.935 187.786 204.037C187.789 204.038 187.789 204.038 187.793 204.039C187.855 204.058 187.928 204.083 187.996 204.106C188.7 204.33 189.728 204.714 191.334 205.321C193.632 206.188 195.309 206.494 197.772 206.494C201.796 206.494 203.744 205.766 213.952 200.445C214.267 200.281 214.518 200.156 214.815 200.002C215.217 199.794 215.619 199.585 216.01 199.389C221.107 196.796 223.537 195.867 225.533 195.882L225.534 195.883ZM148.578 207.135C151.86 207.133 155.195 208.185 158.083 210.016C160.073 211.184 161.766 212.735 163.113 214.635C163.856 215.621 164.499 216.684 165.018 217.813C165.676 219.239 165.981 220.129 166.125 221.624C166.615 223.962 166.627 226.319 166.216 228.58C166.124 230.665 165.799 231.451 164.727 233.586C161.792 239.436 156.532 242.943 149.579 243.688C148.447 243.809 146.595 243.725 145.463 243.501C143.295 243.073 141.33 242.372 139.577 241.42C138.939 241.132 138.435 240.874 138.235 240.718C138 240.534 137.76 240.327 137.52 240.118C135.163 238.383 133.305 236.093 131.996 233.301C131.978 233.267 131.955 233.229 131.939 233.196C131.435 232.15 131.13 231.407 130.938 230.558C130.7 229.793 130.495 228.999 130.327 228.175C129.89 226.032 129.88 224.784 130.28 222.787C131.945 214.497 137.433 209.042 145.755 207.405C146.683 207.223 147.628 207.135 148.578 207.135L148.578 207.135Z" fill="#FFD73E"/>
<path d="M287.125 202.727C285.46 202.708 283.514 203.045 281.985 203.716C279.325 204.882 276.921 207.524 275.792 210.517C274.557 213.796 274.662 219.062 275.941 222.745C276.19 223.403 276.468 224.03 276.771 224.625C278.094 227.034 280.365 229.401 282.442 230.476C284.055 231.311 287.632 231.413 289.263 230.67C291.394 229.699 293.472 220.915 292.993 214.91C292.592 209.891 291.186 204.174 290.172 203.432C289.545 202.973 288.419 202.743 287.125 202.727V202.727ZM148.674 210.559C147.91 210.56 147.149 210.63 146.402 210.777C139.702 212.095 135.284 216.487 133.944 223.161C133.621 224.768 133.63 225.773 133.981 227.498C134.117 228.161 134.281 228.8 134.473 229.417C134.628 230.1 134.873 230.699 135.279 231.541C135.292 231.568 135.311 231.598 135.324 231.625C136.378 233.873 137.875 235.716 139.772 237.113C139.965 237.281 140.158 237.448 140.348 237.596C140.508 237.722 140.914 237.929 141.428 238.162C142.839 238.928 144.421 239.492 146.166 239.837C147.077 240.017 148.569 240.084 149.48 239.987C155.078 239.387 159.312 236.564 161.675 231.855C162.538 230.136 162.799 229.503 162.874 227.824C163.204 226.004 163.195 224.106 162.8 222.225C162.684 221.021 162.438 220.305 161.909 219.156C161.49 218.248 160.973 217.392 160.375 216.598C159.291 215.069 157.928 213.82 156.326 212.88C154.001 211.406 151.317 210.559 148.674 210.56L148.674 210.559Z" fill="#EE4E36"/>
<path d="M256.236 163.962C253.628 163.959 251.126 166.52 251.114 169.201C251.114 169.229 251.115 169.252 251.115 169.279C251.133 170.349 251.667 171.658 252.414 172.661C252.434 172.687 252.456 172.712 252.476 172.737C252.605 172.872 252.735 173.008 252.889 173.161C253.175 173.448 253.458 173.696 253.738 173.914C255.238 174.761 257.879 174.609 259.378 173.542C261.246 172.212 261.932 169.68 261.019 167.493C260.259 165.676 257.942 163.966 256.236 163.962H256.236ZM169.383 168.55C169.242 168.552 169.105 168.561 168.969 168.57C165.198 168.961 163.154 172.713 164.858 176.161C165.309 176.975 165.958 177.72 166.691 178.283C168.505 179.465 170.975 179.356 172.864 177.779C174.145 176.709 174.428 176.121 174.619 174.131C174.651 173.808 174.673 173.536 174.688 173.287C174.616 172.486 174.45 171.782 174.185 171.183C173.961 170.889 173.658 170.568 173.236 170.146C172.578 169.488 172.104 169.093 171.597 168.857C170.955 168.648 170.219 168.542 169.383 168.55V168.55Z" fill="white"/>
<path d="M219.512 218.814C211.933 218.886 205.234 223.335 198.984 230.023C202.721 242.16 208.204 251.93 213.973 256.126C214.386 256.456 214.775 256.708 215.214 256.932C215.661 257.193 216.108 257.43 216.557 257.62C221.535 259.732 225.944 258.191 230.52 252.74C234.449 248.059 238.384 239.904 241.578 229.959C233.371 222 226.109 218.751 219.512 218.814Z" fill="#EE7277"/>
</svg>
